<?xml version="1.0" encoding="UTF-8" standalone="no"?>
<!-- Created with Inkscape (http://www.inkscape.org/) -->

<svg
   xmlns:dc="http://purl.org/dc/elements/1.1/"
   xmlns:cc="http://creativecommons.org/ns#"
   xmlns:rdf="http://www.w3.org/1999/02/22-rdf-syntax-ns#"
   xmlns:svg="http://www.w3.org/2000/svg"
   xmlns="http://www.w3.org/2000/svg"
   xmlns:sodipodi="http://sodipodi.sourceforge.net/DTD/sodipodi-0.dtd"
   xmlns:inkscape="http://www.inkscape.org/namespaces/inkscape"
   width="21.116179mm"
   height="30.813826mm"
   viewBox="0 0 21.116179 30.813826"
   version="1.1"
   id="svg1026"
   inkscape:version="0.92.4 (5da689c313, 2019-01-14)"
   sodipodi:docname="logo.svg">
  <defs
     id="defs1020" />
  <sodipodi:namedview
     id="base"
     pagecolor="#ffffff"
     bordercolor="#666666"
     borderopacity="1.0"
     inkscape:pageopacity="0.0"
     inkscape:pageshadow="2"
     inkscape:zoom="1.4"
     inkscape:cx="-176.55496"
     inkscape:cy="0.34598944"
     inkscape:document-units="mm"
     inkscape:current-layer="layer1"
     showgrid="false"
     fit-margin-top="0"
     fit-margin-left="0"
     fit-margin-right="0"
     fit-margin-bottom="0"
     inkscape:window-width="1920"
     inkscape:window-height="1027"
     inkscape:window-x="-8"
     inkscape:window-y="-8"
     inkscape:window-maximized="1" />
  <metadata
     id="metadata1023">
    <rdf:RDF>
      <cc:Work
         rdf:about="">
        <dc:format>image/svg+xml</dc:format>
        <dc:type
           rdf:resource="http://purl.org/dc/dcmitype/StillImage" />
        <dc:title></dc:title>
      </cc:Work>
    </rdf:RDF>
  </metadata>
  <g
     inkscape:label="Layer 1"
     inkscape:groupmode="layer"
     id="layer1"
     transform="translate(-69.572864,-63.122852)">
    <g
       id="g952"
       transform="translate(97.087269,-269.53064)">
      <path
         sodipodi:nodetypes="ccccc"
         inkscape:connector-curvature="0"
         id="path1171-8-45-5-0-0"
         d="m -25.069026,351.88359 c 5.810348,3.15219 12.019969,-1.66109 15.7973786,-0.73228 l -2.7085116,4.68444 c -3.458354,0.0263 -6.916713,0.6836 -10.375047,-0.22068 z"
         style="fill:#ff9eb8;fill-opacity:1;stroke:#ff9eb8;stroke-width:0.04437139px;stroke-linecap:butt;stroke-linejoin:miter;stroke-opacity:1" />
      <path
         sodipodi:nodetypes="cscccc"
         inkscape:connector-curvature="0"
         id="path966-6-6-4-3-8-9"
         d="m -9.325444,351.36839 c -1.101329,0.2594 -3.392298,2.59076 -5.736283,3.65494 -3.565171,1.61868 -7.558417,1.59774 -10.08204,-2.92424 -0.362125,3.17266 1.190228,6.25823 3.953546,7.85848 3.84012,2.21713 8.750463,0.90133 10.967571,-2.93873 0.9827564,-1.70944 1.3021258,-3.7207 0.897206,-5.65045 z"
         style="opacity:1;fill:#ffffff;fill-opacity:1;fill-rule:nonzero;stroke:#ffffff;stroke-width:0.49670213;stroke-linejoin:round;stroke-miterlimit:4;stroke-dasharray:none;stroke-dashoffset:0;stroke-opacity:1" />
      <path
         transform="rotate(-54.5462)"
         sodipodi:open="true"
         d="m -287.84312,190.83107 a 9.8250895,9.8250895 0 0 1 -8.38133,9.71843 9.8250895,9.8250895 0 0 1 -10.84454,-6.86225 9.8250895,9.8250895 0 0 1 5.1942,-11.7352 9.8250895,9.8250895 0 0 1 12.37107,3.41337"
         sodipodi:end="5.693264"
         sodipodi:start="0"
         sodipodi:ry="9.8250895"
         sodipodi:rx="9.8250895"
         sodipodi:cy="190.83107"
         sodipodi:cx="-297.66821"
         sodipodi:type="arc"
         id="path947-0-5-6-6-9-5-9"
         style="opacity:1;fill:none;fill-opacity:1;fill-rule:nonzero;stroke:#ffffff;stroke-width:0.95003647;stroke-linejoin:round;stroke-miterlimit:4;stroke-dasharray:none;stroke-dashoffset:0;stroke-opacity:1" />
      <path
         inkscape:connector-curvature="0"
         id="path949-29-1-2-79-3-6-2"
         d="m -17.403118,343.69802 2.360863,-8.81079 -2.451768,-0.65701"
         style="fill:none;fill-opacity:1;stroke:#ffffff;stroke-width:0.95003653;stroke-linecap:butt;stroke-linejoin:miter;stroke-miterlimit:4;stroke-dasharray:none;stroke-opacity:1" />
      <path
         inkscape:connector-curvature="0"
         id="path949-2-4-7-8-1-7-5-6"
         d="m -11.333775,345.66992 2.3608449,-8.81086 2.4517469,0.65701"
         style="fill:none;fill-opacity:1;stroke:#ffffff;stroke-width:0.95003653;stroke-linecap:butt;stroke-linejoin:miter;stroke-miterlimit:4;stroke-dasharray:none;stroke-opacity:1" />
      <g
         transform="matrix(0.28103186,0,0,0.28103186,31.064109,306.95794)"
         style="fill:#ff9eb8;fill-opacity:1;stroke:#ff9eb8;stroke-opacity:1"
         id="g944-2-4-2-3-6-63-9-6">
        <path
           style="fill:#ff9eb8;fill-opacity:1;stroke:#ff9eb8;stroke-width:0.26458332px;stroke-linecap:butt;stroke-linejoin:miter;stroke-opacity:1"
           d="m -168.78981,180.20415 c 0.0211,-3.58955 7.41668,-2.47594 7.60677,6.18937 -2.09146,-2.42651 -7.62784,-2.59982 -7.60677,-6.18937 z"
           id="path877-7-4-6-3-7-1-01-3-8-0"
           inkscape:connector-curvature="0"
           sodipodi:nodetypes="zcz" />
        <path
           style="fill:#ff9eb8;fill-opacity:1;stroke:#ff9eb8;stroke-width:0.26458332px;stroke-linecap:butt;stroke-linejoin:miter;stroke-opacity:1"
           d="m -160.18078,176.63817 c -2.55308,-2.5233 -6.99514,3.49365 -1.00226,9.75535 -0.23692,-3.19469 3.55533,-7.23203 1.00226,-9.75535 z"
           id="path877-2-8-6-9-1-0-75-7-0-2-4"
           inkscape:connector-curvature="0"
           sodipodi:nodetypes="zcz" />
      </g>
      <path
         sodipodi:nodetypes="zcz"
         inkscape:connector-curvature="0"
         id="path877-0-3-2-4-6-0-4-6"
         d="m -18.029465,347.23925 c 0.0084,-1.38744 2.866616,-0.95701 2.940114,2.39224 -0.808386,-0.93785 -2.948268,-1.00489 -2.940114,-2.39224 z"
         style="fill:#f9f9f9;fill-opacity:1;stroke:#f3f3f3;stroke-width:0.10226478px;stroke-linecap:butt;stroke-linejoin:miter;stroke-opacity:1" />
      <path
         sodipodi:nodetypes="zcz"
         inkscape:connector-curvature="0"
         id="path877-2-7-9-3-8-3-6-4-3"
         d="m -12.956506,343.23818 c -0.986804,-0.97525 -2.703705,1.35036 -0.387369,3.77058 -0.09145,-1.23479 1.37417,-2.79526 0.387369,-3.77058 z"
         style="fill:#ff9eb8;fill-opacity:1;stroke:#ff9eb8;stroke-width:0.10226478px;stroke-linecap:butt;stroke-linejoin:miter;stroke-opacity:1" />
      <g
         transform="matrix(0.23117727,0.23117727,-0.23117727,0.23117727,68.956899,330.24968)"
         style="fill:#ffffff;fill-opacity:1;stroke:#ffffff;stroke-opacity:1"
         id="g944-2-4-2-7-8-6-1-5-5">
        <path
           style="fill:#ffffff;fill-opacity:1;stroke:#ffffff;stroke-width:0.26458332px;stroke-linecap:butt;stroke-linejoin:miter;stroke-opacity:1"
           d="m -168.78981,180.20415 c 0.0211,-3.58955 7.41668,-2.47594 7.60677,6.18937 -2.09146,-2.42651 -7.62784,-2.59982 -7.60677,-6.18937 z"
           id="path877-7-4-6-3-7-9-4-82-1-8-0"
           inkscape:connector-curvature="0"
           sodipodi:nodetypes="zcz" />
        <path
           style="fill:#ffffff;fill-opacity:1;stroke:#ffffff;stroke-width:0.26458332px;stroke-linecap:butt;stroke-linejoin:miter;stroke-opacity:1"
           d="m -160.18078,176.63817 c -2.55308,-2.5233 -6.99514,3.49365 -1.00226,9.75535 -0.23692,-3.19469 3.55533,-7.23203 1.00226,-9.75535 z"
           id="path877-2-8-6-9-1-0-7-5-1-0-8-9"
           inkscape:connector-curvature="0"
           sodipodi:nodetypes="zcz" />
      </g>
    </g>
  </g>
</svg>
